<svg width="21" height="21" viewBox="0 0 21 21" fill="none" xmlns="http://www.w3.org/2000/svg">
<path d="M17.7188 3.9375H14.4375V3.28125C14.4375 2.75911 14.2301 2.25835 13.8609 1.88913C13.4917 1.51992 12.9909 1.3125 12.4688 1.3125H8.53125C8.00911 1.3125 7.50835 1.51992 7.13913 1.88913C6.76992 2.25835 6.5625 2.75911 6.5625 3.28125V3.9375H3.28125C3.1072 3.9375 2.94028 4.00664 2.81721 4.12971C2.69414 4.25278 2.625 4.4197 2.625 4.59375C2.625 4.7678 2.69414 4.93472 2.81721 5.05779C2.94028 5.18086 3.1072 5.25 3.28125 5.25H3.9375V17.0625C3.9375 17.4106 4.07578 17.7444 4.32192 17.9906C4.56806 18.2367 4.9019 18.375 5.25 18.375H15.75C16.0981 18.375 16.4319 18.2367 16.6781 17.9906C16.9242 17.7444 17.0625 17.4106 17.0625 17.0625V5.25H17.7188C17.8928 5.25 18.0597 5.18086 18.1828 5.05779C18.3059 4.93472 18.375 4.7678 18.375 4.59375C18.375 4.4197 18.3059 4.25278 18.1828 4.12971C18.0597 4.00664 17.8928 3.9375 17.7188 3.9375ZM7.875 3.28125C7.875 3.1072 7.94414 2.94028 8.06721 2.81721C8.19028 2.69414 8.3572 2.625 8.53125 2.625H12.4688C12.6428 2.625 12.8097 2.69414 12.9328 2.81721C13.0559 2.94028 13.125 3.1072 13.125 3.28125V3.9375H7.875V3.28125ZM15.75 17.0625H5.25V5.25H15.75V17.0625ZM9.1875 8.53125V13.7812C9.1875 13.9553 9.11836 14.1222 8.99529 14.2453C8.87222 14.3684 8.7053 14.4375 8.53125 14.4375C8.3572 14.4375 8.19028 14.3684 8.06721 14.2453C7.94414 14.1222 7.875 13.9553 7.875 13.7812V8.53125C7.875 8.3572 7.94414 8.19028 8.06721 8.06721C8.19028 7.94414 8.3572 7.875 8.53125 7.875C8.7053 7.875 8.87222 7.94414 8.99529 8.06721C9.11836 8.19028 9.1875 8.3572 9.1875 8.53125ZM13.125 8.53125V13.7812C13.125 13.9553 13.0559 14.1222 12.9328 14.2453C12.8097 14.3684 12.6428 14.4375 12.4688 14.4375C12.2947 14.4375 12.1278 14.3684 12.0047 14.2453C11.8816 14.1222 11.8125 13.9553 11.8125 13.7812V8.53125C11.8125 8.3572 11.8816 8.19028 12.0047 8.06721C12.1278 7.94414 12.2947 7.875 12.4688 7.875C12.6428 7.875 12.8097 7.94414 12.9328 8.06721C13.0559 8.19028 13.125 8.3572 13.125 8.53125Z" fill="#A16258"/>
</svg>
