<svg width="356" height="221" viewBox="0 0 356 221" fill="none" xmlns="http://www.w3.org/2000/svg">
<path d="M309.837 137.924C335.221 112.54 335.221 71.3841 309.837 46C284.453 20.6159 243.297 20.6159 217.913 46C192.529 71.3841 192.529 112.54 217.913 137.924C243.297 163.308 284.453 163.308 309.837 137.924Z" fill="#F2EA33"/>
<path d="M323.345 72H323V157H323.345V72Z" fill="white"/>
<path d="M315.036 72H314.691V157H315.036V72Z" fill="white"/>
<path d="M307.156 72H306.811V157H307.156V72Z" fill="white"/>
<path d="M299.274 72H298.929V157H299.274V72Z" fill="white"/>
<path d="M291.394 72H291.049V157H291.394V72Z" fill="white"/>
<path d="M283.513 72H283.168V157H283.513V72Z" fill="white"/>
<path d="M275.632 72H275.287V157H275.632V72Z" fill="white"/>
<path d="M267.751 72H267.406V157H267.751V72Z" fill="white"/>
<path d="M259.87 72H259.525V157H259.87V72Z" fill="white"/>
<path d="M251.99 72H251.645V157H251.99V72Z" fill="white"/>
<path d="M331 77.6562H246V78.0017H331V77.6562Z" fill="white"/>
<path d="M331 85.5547H246V85.9001H331V85.5547Z" fill="white"/>
<path d="M331 93.4531H246V93.7985H331V93.4531Z" fill="white"/>
<path d="M331 101.351H246V101.696H331V101.351Z" fill="white"/>
<path d="M331 109.249H246V109.594H331V109.249Z" fill="white"/>
<path d="M331 117.147H246V117.492H331V117.147Z" fill="white"/>
<path d="M331 125.046H246V125.391H331V125.046Z" fill="white"/>
<path d="M331 132.944H246V133.29H331V132.944Z" fill="white"/>
<path d="M331 140.842H246V141.188H331V140.842Z" fill="white"/>
<path d="M331 148.74H246V149.086H331V148.74Z" fill="white"/>
<path d="M290.578 60.8854L289.326 57.1304L288.075 60.8854L284.633 62.6064L288.075 64.3275L289.326 68.082L290.578 64.3275L294.02 62.6064L290.578 60.8854Z" fill="white"/>
<path d="M247.97 107.449L246.719 103.694L245.467 107.449L242.025 109.17L245.467 110.891L246.719 114.645L247.97 110.891L251.412 109.17L247.97 107.449Z" fill="white"/>
<path d="M309.406 71.8734L308.678 69.6885L307.95 71.8734L305.947 72.8747L307.95 73.876L308.678 76.0609L309.406 73.876L311.409 72.8747L309.406 71.8734Z" fill="white"/>
<path d="M252.99 98.0358L252.391 96.2375L251.791 98.0358L250.143 98.86L251.791 99.6842L252.391 101.483L252.99 99.6842L254.639 98.86L252.99 98.0358Z" fill="white"/>
<path d="M134.112 135.215C158.764 110.603 158.764 70.7003 134.112 46.0888C109.46 21.4773 69.4905 21.4773 44.8382 46.0888C20.1858 70.7003 20.1858 110.603 44.8382 135.215C69.4905 159.826 109.46 159.826 134.112 135.215Z" fill="#45F2FF"/>
<path d="M90.5886 25.4692H90.2976V96.9055H90.5886V25.4692Z" fill="white"/>
<path d="M83.9394 25.4692H83.6484V96.9055H83.9394V25.4692Z" fill="white"/>
<path d="M77.2903 25.4692H76.9993V96.9055H77.2903V25.4692Z" fill="white"/>
<path d="M70.6421 25.4692H70.3511V96.9055H70.6421V25.4692Z" fill="white"/>
<path d="M63.9929 25.4692H63.7019V96.9055H63.9929V25.4692Z" fill="white"/>
<path d="M57.3437 25.4692H57.0527V96.9055H57.3437V25.4692Z" fill="white"/>
<path d="M50.6953 25.4692H50.4043V96.9055H50.6953V25.4692Z" fill="white"/>
<path d="M44.0464 25.4692H43.7554V96.9055H44.0464V25.4692Z" fill="white"/>
<path d="M37.3972 25.4692H37.1062V96.9055H37.3972V25.4692Z" fill="white"/>
<path d="M30.7483 25.4692H30.4573V96.9055H30.7483V25.4692Z" fill="white"/>
<path d="M97.4084 30.2231H25.6956V30.5133H97.4084V30.2231Z" fill="white"/>
<path d="M97.4084 36.8613H25.6956V37.1515H97.4084V36.8613Z" fill="white"/>
<path d="M97.4084 43.499H25.6956V43.7892H97.4084V43.499Z" fill="white"/>
<path d="M97.4084 50.137H25.6956V50.4271H97.4084V50.137Z" fill="white"/>
<path d="M97.4084 56.7751H25.6956V57.0653H97.4084V56.7751Z" fill="white"/>
<path d="M97.4084 63.4124H25.6956V63.7025H97.4084V63.4124Z" fill="white"/>
<path d="M97.4084 70.0505H25.6956V70.3407H97.4084V70.0505Z" fill="white"/>
<path d="M97.4084 76.688H25.6956V76.9782H97.4084V76.688Z" fill="white"/>
<path d="M97.4084 83.3259H25.6956V83.6161H97.4084V83.3259Z" fill="white"/>
<path d="M97.4084 89.9641H25.6956V90.2543H97.4084V89.9641Z" fill="white"/>
<path d="M99.3962 72.9438L98.3287 69.7466L97.2612 72.9438L94.3254 74.409L97.2612 75.8742L98.3287 79.0714L99.3962 75.8742L102.332 74.409L99.3962 72.9438Z" fill="white"/>
<path d="M58.1379 54.2976L56.4232 49.1626L54.7085 54.2976L49.9934 56.6515L54.7085 59.0049L56.4232 64.1404L58.1379 59.0049L62.853 56.6515L58.1379 54.2976Z" fill="white"/>
<path d="M43.3539 67.6351L42.5001 65.0774L41.6463 67.6351L39.2981 68.8072L41.6463 69.9794L42.5001 72.5366L43.3539 69.9794L45.7021 68.8072L43.3539 67.6351Z" fill="white"/>
<path d="M102.95 113.296L102.097 110.738L101.243 113.296L98.8945 114.468L101.243 115.64L102.097 118.197L102.95 115.64L105.299 114.468L102.95 113.296Z" fill="white"/>
<path d="M75.2708 220.962C112.523 220.962 142.722 216.886 142.722 211.858C142.722 206.829 112.523 202.753 75.2708 202.753C38.0186 202.753 7.81982 206.829 7.81982 211.858C7.81982 216.886 38.0186 220.962 75.2708 220.962Z" fill="#83DDF2"/>
<path d="M274.706 220.962C313.808 220.962 345.507 216.563 345.507 211.137C345.507 205.711 313.808 201.313 274.706 201.313C235.603 201.313 203.904 205.711 203.904 211.137C203.904 216.563 235.603 220.962 274.706 220.962Z" fill="#83DDF2"/>
<path d="M111.476 204.493H108.26L117.296 147.156H122.044L111.476 204.493Z" fill="#C12129"/>
<path d="M250.442 204.493H253.658L244.622 147.156H239.874L250.442 204.493Z" fill="#C12129"/>
<path d="M243.367 155.91H118.183V160.454H243.367V155.91Z" fill="#C12129"/>
<path d="M26.4975 191.023C26.5789 190.407 25.9676 189.875 25.3487 189.804C24.7298 189.733 24.1256 189.988 23.5557 190.239C22.6559 190.634 21.7561 191.028 20.8564 191.423C20.0465 191.779 19.1518 192.224 18.879 193.064C17.5437 197.173 17.8216 201.802 18.2581 206.099C18.3455 206.96 18.4733 207.836 18.8714 208.605C19.269 209.373 19.9849 210.026 20.8442 210.136C21.7359 210.251 22.6211 209.761 23.2056 209.079C23.7901 208.396 24.1261 207.542 24.4358 206.699C26.3106 201.594 25.7862 196.415 26.4975 191.023Z" fill="#E34050"/>
<path d="M114.587 202.68C114.036 202.391 113.324 202.779 113.043 203.334C112.761 203.888 112.793 204.543 112.83 205.164C112.889 206.143 112.949 207.122 113.008 208.102C113.061 208.984 113.169 209.976 113.864 210.522C117.262 213.197 121.708 214.54 125.897 215.62C126.736 215.837 127.604 216.02 128.464 215.914C129.323 215.807 130.184 215.363 130.586 214.597C131.003 213.801 130.849 212.803 130.411 212.019C129.972 211.235 129.285 210.624 128.601 210.042C124.454 206.517 119.406 205.213 114.587 202.68Z" fill="#E34050"/>
<path d="M84.0185 153.28C86.6532 154.443 88.7124 156.649 90.2078 159.107C91.7032 161.565 92.6939 164.288 93.7119 166.978C98.713 180.193 104.667 193.177 113.073 204.542C113.899 205.658 114.761 206.772 115.866 207.614C116.976 208.46 118.635 208.969 119.713 208.082C120.973 207.045 120.478 205.046 119.88 203.529C114.837 190.725 110.272 177.733 106.2 164.588C104.955 160.571 103.744 156.508 101.76 152.799C99.7765 149.089 96.9321 145.707 93.1633 143.829C90.9909 142.746 88.2294 142.247 86.2278 143.619C84.5858 144.745 83.8856 146.89 84.0074 148.874C84.1291 150.859 84.9445 152.729 85.8019 154.523" fill="#BB7429"/>
<path d="M55.9623 154.718C55.9911 156.818 56.2679 158.914 56.7848 160.95C51.2436 164.554 46.2037 169.378 41.6846 174.199C35.854 180.419 29.9294 185.456 24.0988 191.677C23.2854 192.544 23.4991 193.882 23.6097 195.065C23.7204 196.249 24.3559 197.459 25.4563 197.912C36.6325 189.742 48.56 182.118 60.6092 175.297C63.4535 173.686 66.3979 172.05 68.4314 169.493C71.7526 165.317 72.0118 159.565 72.127 154.234C72.176 151.97 69.8843 149.957 67.7716 149.132C65.6588 148.308 63.2828 148.412 61.072 148.918C59.5725 149.262 58.0721 149.809 56.9358 150.844C55.7996 151.88 55.9411 153.182 55.9623 154.718Z" fill="#BB7429"/>
<path d="M88.5087 149.377C88.5844 149.326 88.685 149.378 88.7603 149.43C89.8773 150.199 90.9034 151.097 91.8238 152.093C95.1789 150.989 98.3941 149.428 101.373 147.537C101.45 145.207 99.6303 142.991 97.9662 141.354C96.302 139.718 94.4307 138.089 93.7846 135.849C93.4592 134.72 93.4279 133.415 92.5973 132.583C92.132 132.117 91.4419 131.835 91.1928 131.227C91.019 130.802 91.1019 130.295 90.8786 129.894C90.4876 129.193 89.4933 129.241 88.6961 129.136C87.4119 128.966 86.2388 128.109 85.6871 126.938C79.0956 128.654 72.0384 129.139 65.2448 129.642C62.1747 129.87 58.5291 130.138 55.4594 130.366C52.6884 133.825 52.0776 138.553 52.3489 142.974C52.6207 147.396 53.6624 151.753 53.7599 156.181C54.9628 156.402 56.1677 156.588 57.3742 156.742C57.8667 155.462 58.3598 154.183 58.8524 152.903C59.6648 154.214 60.3231 155.621 60.8126 157.083C65.2499 157.404 69.7008 157.25 74.135 156.562C74.8584 152.097 74.91 147.503 74.0243 143.067C78.1246 145.827 81.553 149.437 83.934 153.765C85.4198 153.625 86.8925 153.384 88.346 153.056C88.3763 151.896 88.4066 150.736 88.4374 149.577C88.4395 149.503 88.4475 149.418 88.5087 149.377Z" fill="#EE4546"/>
<path d="M55.963 131.422C51.9668 136.535 53.7315 143.383 54.3317 149.244C54.5454 151.331 54.6121 153.438 54.262 155.514C54.219 155.77 54.6111 155.88 54.654 155.622C55.7483 149.108 52.7625 142.62 54.1463 136.126C54.4979 134.477 55.1294 132.917 56.1439 131.562C56.2217 131.458 56.0433 131.319 55.963 131.422Z" fill="#F599A1"/>
<path d="M85.168 128.395C85.5075 130.032 87.5986 129.939 88.7762 130.573C89.2385 130.822 89.5194 131.156 89.6735 131.66C89.7967 132.062 89.9099 132.415 90.2292 132.704C90.5293 132.977 90.9107 133.145 91.1982 133.432C91.5523 133.785 91.7196 134.262 91.8408 134.736C92.0444 135.531 92.1546 136.323 92.492 137.079C92.7906 137.748 93.1902 138.367 93.6469 138.94C94.6402 140.185 95.8764 141.228 97.0935 142.246C98.506 143.428 99.8741 144.694 100.73 146.35C100.843 146.568 101.173 146.375 101.06 146.157C99.6049 143.343 96.854 141.583 94.7382 139.323C93.6045 138.113 92.7987 136.77 92.4274 135.146C92.2561 134.396 92.0596 133.597 91.4665 133.057C91.1664 132.785 90.7763 132.627 90.4858 132.344C90.1302 131.997 90.109 131.481 89.869 131.066C88.9222 129.431 85.844 130.334 85.3792 128.337C85.3469 128.2 85.1392 128.258 85.168 128.395Z" fill="#F599A1"/>
<path d="M96.763 105.247C95.1555 107.86 93.8308 110.646 92.8194 113.541C92.0848 112.51 91.3911 111.478 90.8314 110.343C90.406 109.48 90.0286 108.574 89.9286 107.617C89.8285 106.66 90.0347 105.637 90.6636 104.908C91.5902 103.834 93.1771 103.632 94.5927 103.731C95.6824 103.807 96.425 104.21 96.763 105.247Z" fill="#BB7429"/>
<path d="M113.389 99.4945C114.826 100.266 116.686 101.564 117.366 103.045C117.773 103.933 117.77 105.42 117.081 106.115C116.72 106.479 115.874 105.963 115.385 106.116C111.224 107.426 106.702 107.294 102.454 106.303C98.2048 105.312 94.194 103.496 90.3301 101.473C89.9906 101.295 89.6319 101.096 89.4551 100.756C89.2687 100.397 89.3283 99.964 89.4172 99.5701C89.7779 97.9687 90.5696 96.4743 91.6573 95.2471C92.4808 94.3181 94.1364 92.6965 95.4499 92.5967C96.3007 92.5321 97.541 93.1984 98.3468 93.4591C99.3188 93.7739 100.289 94.0931 101.257 94.422C103.189 95.0787 105.11 95.7717 107.003 96.5353C109.18 97.4124 111.321 98.3838 113.389 99.4945Z" fill="#BB7429"/>
<path d="M83.7511 129.793C85.2526 129.53 86.8066 128.128 87.184 126.653C87.5341 125.285 87.5124 123.833 87.9595 122.493C88.5773 120.643 90.0142 119.205 91.3434 117.776C92.6726 116.347 94.0255 114.877 94.2988 112.946C91.6566 110.315 90.5416 106.379 90.922 102.673C91.3024 98.967 92.9802 95.5065 95.3633 92.6391C93.731 92.3214 92.0698 92.1494 90.4072 92.1272C83.0473 92.1832 75.7632 92.4924 68.422 93.0129C70.9592 99.0144 69.0995 106.527 64.6138 111.257C62.936 113.026 60.8409 114.477 59.7006 116.632C58.2592 119.354 58.5043 122.919 56.4026 125.172C55.6701 125.957 54.7152 126.5 53.919 127.221C53.7159 127.406 53.5219 127.609 53.3476 127.828C52.5888 128.78 52.9536 130.21 54.0898 130.652C63.6357 134.364 73.4347 131.598 83.7511 129.793Z" fill="#F5AF1A"/>
<path d="M61.3436 114.592C59.6941 117.291 59.8118 120.551 58.6564 123.429C58.0825 124.858 57.1827 126.031 55.8206 126.781C54.6243 127.44 53.2501 128.291 53.5002 129.865C53.572 130.315 54.258 130.124 54.1868 129.676C54.0443 128.779 54.8633 128.146 55.5453 127.746C56.1495 127.392 56.7608 127.068 57.2868 126.598C58.231 125.754 58.8569 124.607 59.3025 123.437C60.3655 120.645 60.265 117.482 61.8124 114.866C61.9897 114.565 61.525 114.295 61.3436 114.592Z" fill="#FFE3AD"/>
<path d="M93.0653 113.302C92.1125 115.98 89.3288 117.44 87.6768 119.63C86.7204 120.897 86.3137 122.305 86.1147 123.864C86.0055 124.718 85.9237 125.577 85.6933 126.41C85.5832 126.809 85.4438 127.2 85.2492 127.565C85.0441 127.95 84.6981 128.257 84.5243 128.649C84.4394 128.84 84.5874 129.167 84.8421 129.061C85.4857 128.794 85.8666 128.008 86.1238 127.394C86.4562 126.601 86.6194 125.76 86.7361 124.912C86.976 123.174 87.1185 121.47 88.1926 120.014C89.8871 117.716 92.6334 116.279 93.5559 113.437C93.6574 113.123 93.174 112.997 93.0653 113.302Z" fill="#FFE3AD"/>
<path d="M95.1004 78.0573C95.4091 77.4551 95.7269 76.805 95.6405 76.1337C95.5597 75.5052 95.1388 74.9807 94.7352 74.4924C94.6468 73.5064 93.8086 72.5556 92.8588 72.2712C92.1238 72.0508 91.3104 72.1738 90.592 71.903C89.9685 71.668 89.4871 71.1631 88.9005 70.8473C87.6703 70.1846 85.994 70.5034 85.0938 71.5716C84.442 71.7002 83.806 71.6266 83.1421 71.5999C82.4788 71.5731 81.7533 71.673 81.2875 72.1461C80.8394 72.601 80.7171 73.3198 80.2225 73.7233C79.8406 74.035 79.3192 74.093 78.8494 74.2423C78.1527 74.4632 77.5227 74.9222 77.1564 75.5536C76.7902 76.1851 76.7098 76.9896 77.0054 77.6569C77.2191 78.139 77.6116 78.5365 77.7602 79.0429C77.937 79.6456 77.7389 80.2841 77.6258 80.902C77.5126 81.5199 77.5212 82.2456 77.9885 82.6658C78.5735 83.1918 79.681 83.0521 80.0078 83.7673C80.1801 84.1441 80.0321 84.5864 80.0922 84.996C80.1821 85.6053 80.7298 86.0592 81.3118 86.2614C82.7632 86.7658 84.3658 86.032 85.5469 85.051C86.7281 84.07 87.6971 82.8242 89.0061 82.0212C90.0797 81.3625 91.3215 81.0397 92.4653 80.5111C93.6091 79.9825 94.5265 79.177 95.1004 78.0573Z" fill="#894D21"/>
<path d="M95.0405 77.6998C95.3158 79.6835 95.5916 81.6828 95.4729 83.6816C95.3542 85.681 94.8131 87.704 93.5996 89.2988C93.1742 89.8577 92.6448 90.3746 91.9759 90.5895C90.9948 90.9052 89.9404 90.5189 88.983 90.1371C88.7526 90.6753 88.6723 91.1544 88.6571 91.7395C89.3872 91.801 90.0637 92.0386 90.7937 92.1006C90.822 92.8784 90.6664 93.645 90.195 94.2649C89.7241 94.8847 89.1123 95.3826 88.4914 95.8531C87.2976 96.7585 85.9937 97.6104 84.5129 97.8429C82.7386 98.1213 80.9199 97.4596 79.4573 96.4195C77.9947 95.3795 76.8292 93.9844 75.6824 92.6045C76.9151 92.2121 78.2478 91.8595 79.5376 91.7531C80.6445 89.6342 81.8646 87.3716 82.9715 85.2527C83.3631 85.1478 83.789 85.0389 84.181 84.9345C83.3226 84.5375 82.7017 83.5429 82.6628 82.5992C82.6239 81.6556 83.2615 80.6968 84.177 80.4582C85.1449 80.206 86.1291 80.7316 86.9799 81.2566C88.1974 80.2277 88.8956 78.5784 88.9259 76.9861C89.6277 77.4597 90.4557 77.9792 91.2797 78.1739C92.376 78.4346 94.122 78.3529 95.0405 77.6998Z" fill="#BB7429"/>
<path d="M91.1629 81.493C90.7022 81.2806 90.2268 81.1021 89.767 80.8877C89.5422 80.7828 89.3275 80.6582 89.1022 80.5548C88.9834 80.5009 88.8581 80.459 88.7359 80.4136C88.6141 80.3682 88.4611 80.3415 88.3822 80.231C88.3186 80.1423 88.3156 79.9748 88.4439 79.9314C88.5904 79.882 88.7041 79.9274 88.847 79.9703C88.9723 80.0076 89.0966 80.0495 89.2219 80.0868C89.474 80.1614 89.7322 80.2068 89.9817 80.2921C90.4859 80.4641 90.9628 80.7183 91.4327 80.9669C91.5625 81.0355 91.5898 81.2292 91.5272 81.3472C91.4625 81.4688 91.2998 81.556 91.1629 81.493Z" fill="#894D21"/>
<path d="M92.7627 81.1024C92.8617 81.0182 92.9512 80.9203 93.0522 80.8391C93.1441 80.765 93.2533 80.7034 93.3538 80.6419C93.5741 80.5077 93.8186 80.4205 94.0631 80.3413C94.5506 80.1834 95.0498 80.1063 95.5621 80.1047C95.7364 80.1042 95.8692 80.2909 95.8556 80.4528C95.8399 80.6363 95.6813 80.7478 95.507 80.7458C95.0639 80.7397 94.6219 80.7952 94.1945 80.9122C93.9873 80.9687 93.7883 81.0474 93.5862 81.118C93.3695 81.1937 93.1416 81.2623 92.937 81.3652C92.7748 81.4474 92.6253 81.2199 92.7627 81.1024Z" fill="#894D21"/>
<path d="M92.298 81.4561C92.5834 82.0427 92.8552 82.6318 93.1144 83.231C93.1816 83.3863 93.2392 83.5558 93.177 83.7237C93.127 83.8589 93.0199 83.9633 92.8885 84.0208C92.7633 84.0753 92.6208 84.0909 92.4854 84.0788C92.3753 84.0687 92.2318 84.0137 92.1302 84.0617C91.8064 84.2145 91.5624 83.7121 91.8872 83.5623C92.0226 83.4998 92.1676 83.4831 92.3146 83.4988C92.3748 83.5053 92.4339 83.5164 92.4935 83.5245C92.5208 83.528 92.548 83.5316 92.5758 83.5331C92.6228 83.5356 92.543 83.5381 92.5905 83.5341C92.6152 83.5321 92.639 83.526 92.6632 83.5215C92.6253 83.528 92.6865 83.526 92.6678 83.521C92.6627 83.5195 92.6784 83.5074 92.6759 83.5164C92.6754 83.519 92.6455 83.5724 92.6592 83.5744C92.6592 83.5744 92.6102 83.4367 92.6061 83.4272C92.5768 83.3581 92.5475 83.2895 92.5182 83.2204C92.298 82.7014 92.0934 82.1793 91.8948 81.6513C91.7958 81.3865 92.1701 81.1928 92.298 81.4561Z" fill="#894D21"/>
<path d="M92.5467 86.7867C92.1168 86.6934 91.6965 86.5759 91.2862 86.4165C91.0877 86.3394 90.8917 86.2561 90.6982 86.1674C90.6042 86.124 90.5108 86.0796 90.4178 86.0337C90.3142 85.9823 90.1869 85.9258 90.1066 85.8421C89.9606 85.6902 90.0763 85.435 90.2945 85.4749C90.3991 85.494 90.5047 85.5556 90.5997 85.603C90.6921 85.6494 90.7846 85.6958 90.878 85.7402C91.07 85.8315 91.265 85.9172 91.4621 85.9969C91.845 86.1517 92.232 86.3 92.6261 86.4236C92.8524 86.4937 92.7857 86.8387 92.5467 86.7867Z" fill="#894D21"/>
<path d="M89.3412 82.0491C89.3947 82.3376 89.6817 82.5262 89.9823 82.4707C90.2829 82.4153 90.483 82.1363 90.4294 81.8478C90.3759 81.5593 90.0889 81.3707 89.7883 81.4262C89.4877 81.4822 89.2876 81.7611 89.3412 82.0491Z" fill="#894D21"/>
<path d="M93.1141 82.0869C93.1677 82.3754 93.4546 82.5641 93.7552 82.5086C94.0558 82.4531 94.2559 82.1742 94.2024 81.8857C94.1488 81.5972 93.8618 81.4085 93.5612 81.464C93.2606 81.5195 93.0606 81.7984 93.1141 82.0869Z" fill="#894D21"/>
<path d="M84.2878 85.5527C84.0988 86.74 83.9139 87.9848 84.31 89.1197C84.7607 90.4124 85.9383 91.3732 87.2488 91.7737C88.1213 92.0405 89.0438 92.0778 89.9532 91.9663C89.5248 91.8781 89.1004 91.7772 88.6568 91.7399C88.672 91.1548 88.7523 90.6756 88.9827 90.1375C88.9908 90.141 88.9993 90.144 89.0074 90.1471C87.2437 88.8286 85.6508 87.2817 84.2878 85.5527Z" fill="#924D22"/>
<path d="M76.8316 95.4561C79.6052 96.3972 82.3783 97.3384 85.1519 98.2795C92.5708 100.797 100.784 99.3997 108.504 100.736C110.938 101.158 113.394 101.646 115.619 102.716C116.486 103.134 117.396 103.755 117.552 104.703C117.728 105.771 116.867 106.721 115.991 107.359C113.378 109.262 110.063 110.044 106.829 110C103.595 109.957 100.417 109.139 97.3577 108.089C92.5764 106.447 87.9952 104.226 83.7474 101.488C82.9047 101.756 81.7841 101.876 80.9207 101.685C80.4595 101.873 79.8421 101.685 79.4177 101.423C79.2616 101.327 79.1166 101.201 78.9373 101.161C78.7104 101.111 78.4725 101.208 78.2431 101.169C77.9572 101.12 77.7526 100.874 77.5742 100.645C77.307 100.302 77.0397 99.9581 76.7725 99.6141C77.3944 99.1465 77.8314 98.1595 77.8122 97.3828C77.7935 96.607 77.4757 95.8918 76.8316 95.4561Z" fill="#BB7429"/>
<path d="M92.5568 97.582C96.312 97.8317 99.9813 98.1237 103.682 98.8026C107.384 99.482 111.038 100.603 114.29 102.494C106.644 102.231 99.1023 101.712 91.4817 101.03C91.6782 99.715 91.8464 98.7355 92.5568 97.582Z" fill="#924D22"/>
<path d="M76.8316 95.4561C79.6052 96.3972 82.3783 97.3384 85.1519 98.2795C92.5708 100.797 100.784 99.3997 108.504 100.736C110.938 101.158 113.394 101.646 115.619 102.716C116.486 103.134 117.396 103.755 117.552 104.703C117.728 105.771 116.867 106.721 115.991 107.359C113.378 109.262 110.063 110.044 106.829 110C103.595 109.957 100.417 109.139 97.3577 108.089C92.5764 106.447 87.9952 104.226 83.7474 101.488C82.9047 101.756 81.7841 101.876 80.9207 101.685C80.4595 101.873 79.8421 101.685 79.4177 101.423C79.2616 101.327 79.1166 101.201 78.9373 101.161C78.7104 101.111 78.4725 101.208 78.2431 101.169C77.9572 101.12 77.7526 100.874 77.5742 100.645C77.307 100.302 77.0397 99.9581 76.7725 99.6141C77.3944 99.1465 77.8314 98.1595 77.8122 97.3828C77.7935 96.607 77.4757 95.8918 76.8316 95.4561Z" fill="#BB7429"/>
<path d="M67.9177 93.3088C65.6342 92.7787 63.2673 94.0835 61.7319 95.8529C60.1966 97.6217 59.2675 99.8198 58.0848 101.841C54.3604 108.204 47.962 113.083 46.2806 120.362C46.0998 121.145 46.1184 121.973 46.414 122.721C47.1375 124.549 48.8855 124.588 50.4233 124.506C59.2498 124.035 67.9738 121.734 75.8818 117.792C77.451 117.009 79.4152 117.135 80.4762 115.741C80.8899 115.197 81.0698 114.354 81.7367 114.199C82.0858 114.119 82.4783 114.303 82.639 114.622C82.7451 114.832 82.5657 115.204 82.353 115.499C82.2429 115.651 82.3869 115.858 82.5683 115.808C83.0553 115.673 83.609 115.349 83.8444 115.061C84.1763 114.655 84.2733 114.07 84.0905 113.58C84.2597 113.346 84.5123 113.125 84.5972 112.85C84.6821 112.574 84.6649 112.251 84.4815 112.029C84.7725 111.814 84.773 111.3 84.6053 110.98C84.4375 110.66 84.1253 110.444 83.8141 110.26C83.1225 109.851 82.3788 109.537 81.6382 109.224C82.6142 108.686 83.7085 108.495 84.8235 108.526C85.0327 108.532 85.2888 108.523 85.3873 108.339C85.4611 108.2 85.3974 108.02 85.2807 107.915C85.164 107.81 85.0064 107.763 84.8538 107.725C82.9729 107.26 80.8657 107.719 79.4112 108.997C77.6768 110.522 76.3764 112.433 74.5642 113.865C69.8112 114.329 65.0961 114.916 60.3436 115.38C63.7214 112.566 66.5668 109.073 68.4674 105.112C70.3624 101.159 69.6652 96.9504 67.9177 93.3088Z" fill="#BB7429"/>
<path d="M56.5288 115.157C57.3867 115.481 58.9205 115.612 60.3436 115.379C63.721 112.565 66.9184 109.222 68.4664 105.112C68.7321 104.406 69.2217 103.469 69.3167 102.663C68.1325 104.793 66.4016 107.025 64.695 108.771C62.2745 111.247 59.4681 113.322 56.5288 115.157Z" fill="#924D22"/>
<path d="M78.0308 98.301C79.0388 95.9053 75.797 92.261 70.79 90.1613C65.7831 88.0615 60.9069 88.3014 59.8989 90.6971C58.8909 93.0928 62.1327 96.7371 67.1397 98.8369C72.1466 100.937 77.0227 100.697 78.0308 98.301Z" fill="#E34050"/>
<path d="M35.3755 180.552C31.6112 184.189 27.8358 187.691 24.0988 191.677C23.2854 192.544 23.4991 193.882 23.6097 195.066C23.7204 196.249 24.3559 197.459 25.4563 197.912C30.6008 194.152 35.909 190.513 41.3102 187.009C38.6225 185.695 36.4441 183.343 35.3755 180.552Z" fill="#E9DFD7"/>
<path d="M85.8022 154.523C85.7481 154.409 85.6946 154.294 85.6405 154.18C85.1247 153.839 84.5877 153.531 84.0188 153.279L85.8022 154.523Z" fill="#BB7429"/>
<path d="M119.88 203.528C117.713 198.027 115.64 192.488 113.651 186.92C111.017 189.121 107.587 190.37 104.151 190.36C106.804 195.283 109.744 200.04 113.073 204.541C113.899 205.657 114.761 206.771 115.866 207.613C116.976 208.459 118.635 208.968 119.713 208.081C120.973 207.044 120.477 205.046 119.88 203.528Z" fill="#E9DFD7"/>
<path d="M76.1169 97.1638C75.6844 98.0324 75.5642 99.0477 75.7587 99.9969C77.2748 99.5767 78.2079 98.6805 78.2079 97.3742C78.2079 96.7674 77.9983 96.1238 77.6325 95.4722C76.9929 95.8943 76.4584 96.4774 76.1169 97.1638Z" fill="#EAD994"/>
<path d="M298.401 96.5199C299.713 97.7853 301.35 98.6518 302.964 99.5012C305.083 100.617 307.334 101.763 309.727 101.645C310.673 101.599 311.595 101.354 312.509 101.111C314.701 100.528 316.965 100.169 319.084 99.362C324.167 97.4272 328.418 96.249 333.293 93.769C335.171 92.8137 337.665 93.9652 339.421 92.8006C339.59 92.6881 339.764 92.5136 339.723 92.3149C339.683 92.1217 339.463 92.0279 339.269 91.9911C338.839 91.9094 338.392 91.9518 337.963 91.864C337.534 91.7757 337.093 91.5003 337.017 91.0701C336.981 90.8653 337.033 90.6535 337.118 90.4639C337.621 89.3426 339.046 89.0279 340.271 88.919C340.639 88.8862 341.121 88.7404 341.104 88.3722C341.092 88.1059 340.807 87.9465 340.555 87.8573C339.143 87.3564 337.574 87.421 336.128 87.8169C334.683 88.2128 333.343 88.9235 332.063 89.7017C331.182 90.2379 330.216 90.8326 329.196 90.6727C324.966 90.89 320.963 91.2537 316.733 91.4711C315.145 91.5528 313.552 91.635 311.984 91.9048C311.5 91.687 310.822 91.2744 310.338 91.0565C308.779 90.3559 306.718 89.4501 305.394 88.3697C303.217 91.2244 300.357 93.5088 298.401 96.5199Z" fill="#F8AB4F"/>
<path d="M311.993 91.9033C311.991 91.9038 311.988 91.9038 311.986 91.9043C311.502 91.6864 310.824 91.2738 310.34 91.0559C308.781 90.3554 306.72 89.4495 305.396 88.3691C305.289 88.5094 305.174 88.6425 305.064 88.7802C307.028 91.5724 308.65 94.6047 309.871 97.7918C310.946 95.9882 311.661 93.9762 311.993 91.9033Z" fill="#E58825"/>
<path d="M283.399 153.887C280.735 154.188 277.962 153.382 275.875 151.701C276.431 150.842 277.013 149.984 277.773 149.298C278.532 148.612 279.496 148.103 280.52 148.068C281.092 148.049 281.66 148.177 282.205 148.35C283.17 148.654 284.11 149.115 284.799 149.854C285.374 150.47 286 151.699 285.774 152.582C285.535 153.515 284.237 153.792 283.399 153.887Z" fill="#2E599C"/>
<path d="M292.501 152.343C292.393 158.065 292.286 163.804 292.864 169.498C292.939 170.246 292.632 171.332 294.061 172.923C300.837 185.072 307.382 195.25 314.977 206.905C315.955 208.407 314.261 210.077 313.292 211.584C312.322 213.091 311.128 214.552 310.848 216.322C310.757 216.901 310.779 217.529 311.09 218.026C311.813 219.179 313.576 218.993 314.787 218.368C317.392 217.021 319.171 214.402 321.801 213.102C322.346 212.832 322.943 212.608 323.345 212.153C324.234 211.145 323.779 209.586 323.278 208.34C322.272 205.84 321.266 203.341 320.26 200.841C317.457 193.873 315.972 186.491 313.443 179.419C312.814 177.66 312.164 175.9 311.284 174.251C309.931 171.717 308.021 169.406 307.393 166.604C309.452 160.687 309.654 154.781 309.895 148.522C309.114 148.679 308.033 148.549 307.252 148.707C305.628 149.033 304.003 149.36 302.379 149.687C300.513 150.062 298.64 150.439 296.849 151.083C295.516 151.562 293.85 151.913 292.501 152.343Z" fill="#F8AB4F"/>
<path d="M267.174 142.243C263.876 151.199 254.834 156.74 250.007 164.976C248.097 168.233 246.89 171.844 245.686 175.422C241.696 187.283 236.762 200.6 230.08 207.437C228.828 208.719 227.567 212.317 227.839 214.087C228.158 216.165 230.618 217.422 232.676 216.977C234.735 216.532 236.314 214.818 237.236 212.928C238.157 211.037 238.025 209.794 238.599 207.771C240.079 202.542 243.32 196.897 246.289 192.343C250.665 185.634 255.646 179.319 261.152 173.499C269.108 165.089 278.429 157.31 282.598 146.518C278.084 144.295 272.206 142.116 267.174 142.243Z" fill="#F8AB4F"/>
<path d="M306.968 121.114C307.66 121.707 308.359 122.307 308.893 123.046C309.487 123.867 309.852 124.827 310.183 125.784C311.401 129.31 312.232 132.956 312.993 136.608C313.875 140.846 314.798 145.291 316.139 149.407C310.214 153.396 302.982 155.415 295.844 155.072C294.196 154.993 292.295 154.714 290.771 155.342C291.026 152.315 292.191 149.288 291.565 146.315C291.212 144.637 290.219 142.671 290.573 140.992C288.918 144.957 287.307 148.972 285.711 152.96C285.333 152.613 284.876 152.349 284.386 152.194C283.859 152.027 283.301 151.987 282.763 151.861C281.308 151.52 280.073 150.575 278.984 149.555C277.894 148.535 276.891 147.406 275.66 146.562C274.565 145.812 273.305 145.303 271.995 145.083C270.712 144.868 269.399 144.928 268.109 144.762C266.82 144.596 265.415 144.14 264.573 143.151C268.165 138.12 271.976 133.246 275.993 128.547C276.347 128.132 277.001 127.827 277.506 127.62C286.832 123.817 296.908 121.669 306.968 121.114Z" fill="#486DB4"/>
<path d="M306.568 122.441C307.913 125.848 309.098 129.327 310.15 132.835C311.204 136.348 312.016 139.931 312.764 143.52C313.193 145.581 313.568 147.653 313.892 149.734C313.96 150.171 314.626 149.985 314.559 149.55C313.433 142.289 311.573 135.19 309.148 128.255C308.453 126.267 307.666 124.306 306.862 122.36C306.789 122.182 306.495 122.257 306.568 122.441Z" fill="#608CC8"/>
<path d="M299.345 124.648C301.031 128.664 305.354 131.505 309.728 131.4C310.238 131.388 310.24 130.594 309.728 130.608C305.464 130.722 301.489 128.368 299.58 124.549C299.516 124.42 299.288 124.512 299.345 124.648Z" fill="#608CC8"/>
<path d="M287.42 129.152C287.741 129.393 288.057 129.641 288.374 129.887C288.693 130.136 289.026 130.369 289.352 130.608C289.437 130.67 289.568 130.622 289.616 130.539C289.673 130.443 289.633 130.335 289.547 130.275C289.218 130.045 288.894 129.807 288.559 129.585C288.224 129.364 287.889 129.144 287.558 128.918C287.411 128.818 287.284 129.049 287.42 129.152Z" fill="#608CC8"/>
<path d="M289.726 127.612C289.089 132.051 289.282 136.524 290.274 140.896C290.356 141.258 290.911 141.105 290.83 140.744C289.869 136.467 289.66 132.025 290.172 127.672C290.202 127.421 289.762 127.359 289.726 127.612Z" fill="#608CC8"/>
<path d="M276.315 129.765C274.645 131.515 273.018 133.296 271.542 135.214C270.812 136.164 270.1 137.129 269.409 138.108C268.679 139.143 268.037 140.228 267.333 141.28C267.202 141.475 267.524 141.664 267.649 141.465C268.287 140.448 269.02 139.495 269.715 138.517C270.435 137.502 271.176 136.503 271.939 135.52C273.412 133.624 274.884 131.722 276.46 129.91C276.544 129.811 276.407 129.669 276.315 129.765Z" fill="#608CC8"/>
<path d="M267.78 83.8974C265.344 86.4984 262.908 89.0995 260.472 91.7005C259.278 92.9756 258.043 94.3222 257.589 96.0079C257.019 98.1282 257.789 100.353 258.55 102.412C260.229 106.962 261.909 111.513 263.589 116.063C268.002 114.693 272.24 113.062 276.313 110.884C277.264 115.718 277.192 120.636 276.01 125.419C275.811 126.222 275.583 128.148 275.213 128.888C275.146 129.022 276.989 129.296 277.725 128.918C283.906 125.741 291.497 127.217 298.378 126.226C300.463 125.925 302.566 125.621 304.546 124.902C306.527 124.183 308.401 123.01 309.601 121.281C308.016 120.079 307.131 117.909 306.484 116.029C305.837 114.15 305.446 112.185 304.708 110.339C303.64 107.669 301.884 105.338 300.149 103.043C298.763 101.209 298.37 98.8954 298.084 96.6156C302.859 93.7578 306.613 88.6153 307.551 83.1363C306.28 81.3538 303.963 81.1586 301.85 80.5791C298.925 79.7777 296.234 78.3155 293.431 77.1605C290.628 76.0055 287.575 75.145 284.584 75.6408C281.491 76.1537 278.832 78.0436 276.258 79.8326C273.685 81.6221 270.904 83.626 267.78 83.8974Z" fill="#EE4546"/>
<path d="M267.535 85.0949C265.131 88.2089 261.75 90.7302 260.125 94.3915C258.217 98.6912 260.004 103.26 261.811 107.258C262.949 109.776 264.117 112.308 264.52 115.066C264.549 115.261 264.845 115.178 264.818 114.984C264.151 110.307 261.271 106.367 260.078 101.847C259.484 99.5925 259.333 97.219 260.133 94.9937C260.812 93.1048 262.086 91.5105 263.417 90.0357C264.857 88.4389 266.435 86.9424 267.675 85.1771C267.736 85.0898 267.597 85.0142 267.535 85.0949Z" fill="#F2808E"/>
<path d="M281.949 77.6157C288.648 75.5246 295.217 79.8395 301.259 82.0946C303.009 82.7477 304.835 83.2284 306.69 83.4619C306.928 83.4917 306.924 83.1205 306.69 83.0897C299.879 82.1965 294.214 77.3802 287.306 76.8955C285.476 76.7669 283.664 76.9212 281.919 77.5083C281.852 77.5305 281.88 77.6374 281.949 77.6157Z" fill="#F2808E"/>
<path d="M297.452 98.0913C297.339 101.635 299.957 104.333 301.858 107.04C302.969 108.623 303.704 110.308 304.144 112.189C304.548 113.919 304.725 115.72 305.399 117.375C306.03 118.923 306.923 120.446 308.342 121.391C308.579 121.548 308.8 121.167 308.564 121.011C307.184 120.093 306.343 118.722 305.848 117.165C305.337 115.555 305.042 113.894 304.658 112.252C304.268 110.578 303.66 109.061 302.699 107.631C301.756 106.229 300.621 104.97 299.65 103.589C298.513 101.971 297.61 100.11 297.662 98.0918C297.666 97.9561 297.456 97.9561 297.452 98.0913Z" fill="#F2808E"/>
<path d="M277.097 110.579C277.775 113.476 278.165 116.431 278.18 119.408C278.187 120.836 278.103 122.262 277.935 123.68C277.753 125.22 277.398 126.71 277.111 128.23C277.053 128.534 277.493 128.664 277.581 128.359C277.991 126.946 278.179 125.444 278.342 123.984C278.511 122.466 278.587 120.935 278.582 119.408C278.572 116.401 278.206 113.393 277.443 110.483C277.385 110.26 277.044 110.354 277.097 110.579Z" fill="#F2808E"/>
<path d="M263.628 76.664C261.652 76.1833 260.057 74.415 259.786 72.4026C259.514 70.3906 260.582 68.2637 262.36 67.2776C261.97 68.1603 262.005 69.287 262.471 70.1324C262.979 68.588 263.985 67.1611 265.316 66.224C266.646 65.2869 268.283 64.7911 269.911 64.8319C268.945 65.5133 268.166 66.6043 267.857 67.7442C269.557 66.0631 272.338 65.3943 274.641 66.0394C273.824 66.3683 273.196 67.1505 273.01 68.0105C274.342 67.3225 276.022 67.1188 277.513 67.2827C277.183 67.6615 276.83 68.1537 277.013 68.6213C277.156 68.9864 277.563 69.1569 277.911 69.34C279.458 70.1566 280.392 71.9975 280.137 73.726C280.015 74.5527 279.591 75.3108 279.453 76.1349C279.317 76.9495 279.218 77.7267 279.329 78.5196C278.613 79.6393 277.771 80.7953 276.501 81.1912C275.785 81.4142 275.013 81.3476 274.272 81.2356C272.662 80.993 271.084 80.5472 269.585 79.9127C268.181 79.318 266.854 78.5614 265.529 77.8064C264.861 77.4251 264.377 76.8461 263.628 76.664Z" fill="#8460A8"/>
<path d="M282.24 81.4207C281.743 79.495 281.02 77.8891 279.337 76.8254C279.289 77.5037 279.184 78.0485 278.744 78.8797C278.385 79.556 277.75 80.1093 276.989 80.19C277.288 79.6392 277.44 79.0113 277.435 78.3849C277.432 78.0056 277.387 77.6162 277.148 77.2979C276.724 76.732 275.848 76.6181 275.233 76.9686C274.618 77.3191 274.274 78.0444 274.273 78.7516C274.273 78.7561 274.274 78.7611 274.274 78.7657C273.735 78.5503 273.198 78.4313 272.815 77.9889C272.577 77.713 272.405 77.3857 272.258 77.0523C271.967 76.3951 271.762 75.7006 271.65 74.9915C269.872 76.0375 268.74 76.5943 266.705 76.9378C266.062 77.0468 264.864 76.9035 263.561 76.5782C263.698 78.6174 265.44 80.1613 266.159 82.0749C266.514 83.0206 266.615 84.0535 267.041 84.97C267.314 85.5575 267.713 86.0791 268.151 86.5572C269.043 87.5301 270.154 88.3629 271.446 88.6347C272.738 88.9071 274.223 88.5177 275 87.4515C275.842 87.977 276.904 88.5248 277.867 88.7654C278.83 89.0059 279.931 88.9091 280.693 88.2731C281.04 87.9826 281.297 87.5987 281.516 87.2018C282.474 85.4577 282.738 83.3464 282.24 81.4207Z" fill="#F8AB4F"/>
<path d="M317.54 141.806C322.111 141.806 325.817 138.606 325.817 134.658C325.817 130.711 322.111 127.511 317.54 127.511C312.969 127.511 309.263 130.711 309.263 134.658C309.263 138.606 312.969 141.806 317.54 141.806Z" fill="#E34050"/>
<path d="M313.706 135.467C313.757 133.424 312.734 131.395 311.095 130.179C309.951 131.405 309.263 132.962 309.263 134.658C309.263 136.685 310.245 138.511 311.814 139.812C312.952 138.662 313.666 137.086 313.706 135.467Z" fill="#EAD994"/>
<path d="M304.302 134.652C305.359 136.742 307.851 138.061 310.193 137.937C309.882 137.53 309.753 136.924 309.93 136.444C311.185 137.447 312.897 137.658 314.504 137.61C315.042 137.594 315.611 137.542 316.049 137.23C316.13 137.172 316.207 137.102 316.243 137.01C316.329 136.789 316.142 136.556 315.942 136.428C315.465 136.123 314.871 136.089 314.311 136.002C313.235 135.835 312.17 135.3 311.255 134.71C312.734 134.641 314.269 134.558 315.577 133.865C315.779 133.758 315.981 133.632 316.108 133.442C316.235 133.252 316.272 132.985 316.14 132.798C315.976 132.565 315.642 132.546 315.356 132.56C313.516 132.648 311.593 133.059 309.87 132.407C310.176 131.619 310.615 130.943 311.018 130.199C310.221 129.861 309.299 129.992 308.481 130.273C307.642 130.563 306.775 131.093 306.093 131.661C304.691 131.787 303.305 131.221 302.142 130.43C300.979 129.639 299.988 128.627 298.919 127.712C297.632 126.61 296.232 125.648 294.834 124.689C292.818 123.305 290.801 121.921 288.785 120.536C288.077 120.05 287.369 119.564 286.622 119.14C285.689 118.61 284.572 118.199 283.547 117.879C281.682 115.271 279.447 112.681 277.164 110.43C273.105 112.646 269.258 114.132 265.047 115.617C271.597 122.152 279.428 127.907 288.242 130.745C289.989 131.307 291.773 131.746 293.539 132.247C297.01 133.234 300.696 134.491 304.302 134.652Z" fill="#F8AB4F"/>
<path d="M280.182 120.435C281.174 119.429 282.31 118.566 283.541 117.871C281.678 115.266 279.444 112.679 277.164 110.43C277.112 110.458 277.062 110.483 277.01 110.511C277.095 110.676 277.175 110.845 277.247 111.01C278.572 114.03 279.559 117.198 280.182 120.435Z" fill="#E58825"/>
<path d="M279.624 107.588C278.676 108.931 276.818 110.068 275.794 111.146C278.011 110.127 280.18 108.614 281.995 106.986C280.571 106.565 279.261 105.797 278.147 104.819C277.477 104.231 276.877 103.569 276.278 102.908C274.483 100.927 272.222 98.5027 270.427 96.521C271.917 99.1624 273.447 101.802 275.496 103.587C276.93 104.837 278.638 105.963 279.624 107.588Z" fill="#D93139"/>
<path d="M276.958 104.22C276.834 101.52 275.979 98.8565 274.506 96.5884C274.992 98.4036 275.164 100.303 275.011 102.175C275.371 102.741 275.817 103.19 276.306 103.65C276.521 103.852 276.743 104.018 276.958 104.22Z" fill="#D93139"/>
<path d="M297.998 96.6661C297.36 95.211 296.721 93.7559 296.083 92.3007C295.202 90.2928 294.293 88.2411 292.778 86.6543C295.979 88.8135 298.468 91.8725 299.885 95.4606C299.334 95.9453 298.625 96.2858 297.998 96.6661Z" fill="#D93139"/>
<path d="M242.448 192.741C241.474 192.355 240.579 191.721 239.951 190.89C238.179 195.058 236.244 198.978 234.105 202.282C233.986 202.529 233.875 202.78 233.787 203.041C233.5 203.889 233.423 204.84 233.759 205.671C234.095 206.501 234.904 207.17 235.8 207.173C236.645 207.175 237.383 206.626 238.006 206.058C238.715 205.41 239.361 204.697 239.95 203.938C241.476 200.249 243.607 196.54 245.676 193.298C244.573 193.299 243.47 193.147 242.448 192.741Z" fill="#EEE2D2"/>
<path d="M238.006 206.058C237.383 206.627 236.645 207.175 235.801 207.173C234.904 207.17 234.095 206.501 233.759 205.671C233.423 204.841 233.5 203.889 233.787 203.041C233.875 202.78 233.986 202.529 234.106 202.282C232.837 204.241 231.498 205.987 230.08 207.438C228.828 208.72 227.567 212.318 227.839 214.088C228.158 216.166 230.618 217.423 232.676 216.978C234.735 216.533 236.314 214.819 237.236 212.929C238.158 211.038 238.026 209.795 238.599 207.772C238.955 206.511 239.416 205.227 239.949 203.939C239.361 204.697 238.715 205.411 238.006 206.058Z" fill="#486DB4"/>
<path d="M315.176 210.972C316.037 211.252 317.023 210.983 317.714 210.398C318.406 209.814 318.824 208.953 318.999 208.065C319.186 207.118 319.119 206.12 319.44 205.21C319.743 204.351 320.411 203.645 321.225 203.238C320.904 202.439 320.582 201.64 320.26 200.84C317.983 195.18 316.575 189.246 314.772 183.427C313.609 184.655 312.224 185.674 310.687 186.383C308.154 187.551 305.249 187.88 302.511 187.342C306.479 193.816 310.549 200.11 314.976 206.905C315.681 207.986 314.998 209.156 314.199 210.288C314.455 210.6 314.793 210.848 315.176 210.972Z" fill="#EEE2D2"/>
<path d="M323.278 208.341C322.593 206.64 321.909 204.939 321.225 203.238C320.411 203.645 319.743 204.351 319.44 205.21C319.119 206.12 319.186 207.118 318.999 208.065C318.824 208.953 318.406 209.814 317.714 210.398C317.023 210.983 316.037 211.252 315.176 210.972C314.793 210.848 314.455 210.6 314.199 210.289C313.889 210.729 313.563 211.163 313.292 211.584C312.322 213.091 311.127 214.552 310.848 216.322C310.757 216.901 310.779 217.529 311.09 218.026C311.814 219.18 313.576 218.994 314.786 218.368C317.392 217.021 319.171 214.402 321.801 213.102C322.346 212.832 322.943 212.609 323.345 212.153C324.234 211.146 323.779 209.586 323.278 208.341Z" fill="#486DB4"/>
<path d="M269.666 80.1767C270.08 79.8841 270.515 79.6223 270.929 79.3283C271.13 79.1845 271.319 79.0226 271.522 78.8804C271.628 78.8058 271.744 78.7417 271.856 78.6746C271.967 78.608 272.113 78.5536 272.171 78.431C272.217 78.3322 272.19 78.1667 272.055 78.1476C271.902 78.1259 271.798 78.1909 271.666 78.259C271.549 78.3185 271.435 78.3821 271.318 78.4416C271.084 78.5606 270.839 78.6524 270.608 78.7816C270.144 79.0418 269.722 79.3792 269.304 79.7086C269.19 79.7994 269.198 79.9951 269.281 80.0995C269.367 80.2074 269.543 80.2639 269.666 80.1767Z" fill="#486DB4"/>
<path d="M268.022 80.0837C267.909 80.0186 267.803 79.9389 267.69 79.8774C267.586 79.8214 267.467 79.7805 267.357 79.7382C267.116 79.6464 266.86 79.605 266.605 79.5717C266.097 79.5052 265.592 79.5198 265.088 79.6116C264.916 79.6429 264.819 79.8502 264.863 80.007C264.912 80.1846 265.088 80.2658 265.259 80.2315C265.693 80.1447 266.139 80.1195 266.58 80.1568C266.794 80.175 267.004 80.2158 267.216 80.2486C267.442 80.2839 267.679 80.3096 267.899 80.3737C268.073 80.4251 268.178 80.174 268.022 80.0837Z" fill="#486DB4"/>
<path d="M268.543 80.3464C268.369 80.9748 268.209 81.6038 268.064 82.2398C268.026 82.4042 268.001 82.5823 268.092 82.7356C268.166 82.8592 268.29 82.9429 268.43 82.9752C268.563 83.0059 268.706 82.9953 268.836 82.959C268.943 82.9293 269.074 82.8491 269.182 82.8778C269.529 82.9696 269.677 82.4309 269.33 82.3427C269.186 82.3059 269.04 82.3159 268.898 82.3583C268.841 82.3755 268.785 82.3976 268.728 82.4163C268.701 82.4249 268.675 82.433 268.648 82.4395C268.603 82.4506 268.681 82.4385 268.634 82.443C268.609 82.4456 268.585 82.4441 268.56 82.4441C268.598 82.4441 268.538 82.4526 268.555 82.4446C268.561 82.4425 268.542 82.433 268.546 82.4415C268.547 82.4441 268.586 82.491 268.573 82.4955C268.573 82.4955 268.596 82.3507 268.598 82.3407C268.615 82.2675 268.631 82.1944 268.647 82.1213C268.769 81.571 268.875 81.0202 268.974 80.4654C269.024 80.187 268.621 80.0644 268.543 80.3464Z" fill="#486DB4"/>
<path d="M271.024 85.2008C271.404 84.9799 271.768 84.7388 272.109 84.4614C272.274 84.3272 272.435 84.188 272.592 84.0438C272.668 83.9736 272.743 83.9025 272.817 83.8304C272.9 83.7497 273.003 83.6564 273.054 83.5525C273.147 83.3629 272.958 83.1561 272.762 83.261C272.669 83.3114 272.587 83.4022 272.511 83.4768C272.438 83.5495 272.364 83.6221 272.289 83.6932C272.134 83.839 271.975 83.9802 271.812 84.1169C271.495 84.3817 271.173 84.6414 270.836 84.88C270.643 85.0157 270.813 85.3239 271.024 85.2008Z" fill="#486DB4"/>
<path d="M271.558 80.3924C271.558 80.686 271.311 80.9235 271.005 80.9235C270.699 80.9235 270.452 80.6855 270.452 80.3924C270.452 80.0989 270.699 79.8613 271.005 79.8613C271.311 79.8613 271.558 80.0994 271.558 80.3924Z" fill="#486DB4"/>
<path d="M267.856 81.1153C267.856 81.4089 267.608 81.6464 267.302 81.6464C266.997 81.6464 266.749 81.4089 266.749 81.1153C266.749 80.8218 266.997 80.5842 267.302 80.5842C267.608 80.5842 267.856 80.8218 267.856 81.1153Z" fill="#486DB4"/>
<path d="M280.256 85.3876C279.729 83.7141 278.74 82.2227 277.652 80.8442C277.483 83.1104 276.423 85.5833 275.029 87.4682C275.866 87.9887 276.915 88.5273 277.867 88.7649C278.796 88.9969 279.85 88.9102 280.608 88.3337C280.685 87.3471 280.554 86.3338 280.256 85.3876Z" fill="#E58825"/>
<path d="M264.62 145.745H100.621L117.582 126.518H252.074L264.62 145.745Z" fill="#EE4546"/>
<path d="M106.066 143.288L118.693 128.974H250.74L260.081 143.288H106.066Z" fill="#F5AF1A"/>
<path d="M264.612 145.745H100.621V149.361H264.612V145.745Z" fill="#E02934"/>
<path d="M98.7699 216.07H94.9041L105.765 147.156H111.471L98.7699 216.07Z" fill="#E02934"/>
<path d="M260.13 171.965H104.844V177.478H260.13V171.965Z" fill="#E02934"/>
<path d="M180.169 112.999H179.115V127.691H180.169V112.999Z" fill="#EE4546"/>
<path d="M179.614 113.024L190.827 130.394V139.983L179.474 122.264L179.614 113.024Z" fill="#569FD7"/>
<path d="M191.164 129.778H190.11V144.471H191.164V129.778Z" fill="#EE4546"/>
<path d="M193.251 143.293H187.741V150.242H193.251V143.293Z" fill="#569FD7"/>
<path d="M265.756 216.07H269.621L258.761 147.156H253.054L265.756 216.07Z" fill="#E02934"/>
<path d="M177.629 100.359C181.071 98.9077 183.009 95.7144 181.956 93.2268C180.904 90.7393 177.26 89.8995 173.818 91.3511C170.375 92.8027 168.438 95.996 169.49 98.4836C170.543 100.971 174.186 101.811 177.629 100.359Z" fill="#81EA26"/>
<path d="M201.274 92.5332C198.458 92.4701 195.645 92.4121 192.828 92.3788C191.466 92.3627 190.104 92.3324 188.741 92.3188C187.368 92.3052 185.882 92.1443 184.525 92.3541C184.059 92.4263 184.061 93.2181 184.525 93.2928C185.88 93.5107 187.369 93.3583 188.741 93.3528C190.103 93.3472 191.466 93.325 192.828 93.3175C195.645 93.3013 198.458 93.26 201.274 93.2141C201.712 93.2065 201.713 92.5433 201.274 92.5332Z" fill="#81EA26"/>
<path d="M220.939 94.9915C216.173 94.7342 211.38 94.8028 206.607 94.7529C201.784 94.702 196.961 94.6727 192.138 94.6339C189.429 94.6122 186.715 94.4906 184.007 94.5022C183.418 94.5048 183.419 95.4041 184.007 95.4152C186.393 95.4605 188.786 95.3803 191.173 95.396C193.562 95.4116 195.95 95.4273 198.339 95.4429C203.162 95.4747 207.986 95.4999 212.809 95.5196C215.518 95.5307 218.232 95.5715 220.939 95.4646C221.245 95.4535 221.244 95.0081 220.939 94.9915Z" fill="#81EA26"/>
<path d="M213.461 97.6267C203.861 97.2938 194.258 97.1969 184.654 97.3023C184.083 97.3089 184.081 98.1961 184.654 98.1895C194.255 98.0836 203.859 98.1023 213.461 98.2122C213.839 98.2168 213.837 97.6398 213.461 97.6267Z" fill="#81EA26"/>
<path d="M204.598 100.262C197.434 100.107 190.239 100.074 183.087 99.6201C182.564 99.5868 182.556 100.447 183.087 100.438C190.25 100.319 197.437 100.624 204.598 100.804C204.948 100.813 204.948 100.27 204.598 100.262Z" fill="#81EA26"/>
</svg>
