<svg width="24" height="24" viewBox="0 0 24 24" fill="none" xmlns="http://www.w3.org/2000/svg">
<path d="M9.7951 17.069C9.95677 16.7073 10.3368 16.77 10.3368 16.77L10.3628 16.773C12.6028 17.2943 14.7121 17.1887 16.3734 15.9503M7.58243 15.727C7.6641 15.417 7.4371 15.2363 7.4371 15.2363L7.4251 15.2237C5.00043 12.9973 3.7691 10.253 5.5131 6.95701C7.54577 3.11501 11.4971 -0.305656 16.1874 2.17568C19.9541 4.16901 20.3468 7.61468 19.4091 10.8457M15.1814 16.6227L5.0231 11.248" stroke="white" stroke-width="1.3" stroke-linecap="round" stroke-linejoin="round"/>
<path d="M7.53373 21.9381L10.9871 14.4034L9.0104 13.3574C9.0104 13.3574 5.15906 19.7488 4.8254 20.5078C4.73895 20.7049 4.72542 20.9264 4.78721 21.1326C4.84901 21.3388 4.98211 21.5163 5.16273 21.6334C5.38606 21.7794 5.6674 21.9418 5.9914 22.0828" stroke="white" stroke-width="1.3" stroke-linecap="round" stroke-linejoin="round"/>
<path d="M18.2741 15.2933C19.1946 15.2933 19.9408 14.5471 19.9408 13.6266C19.9408 12.7062 19.1946 11.96 18.2741 11.96C17.3536 11.96 16.6074 12.7062 16.6074 13.6266C16.6074 14.5471 17.3536 15.2933 18.2741 15.2933Z" stroke="white" stroke-width="1.3" stroke-linecap="round" stroke-linejoin="round"/>
</svg>
