<svg width="24" height="24" viewBox="0 0 24 24" fill="none" xmlns="http://www.w3.org/2000/svg">
<path d="M15 1.6875C13.8361 1.68824 12.6892 1.96659 11.6545 2.49946C10.6198 3.03233 9.72711 3.80434 9.05059 4.75138C8.37406 5.69843 7.9332 6.7932 7.76461 7.94479C7.59603 9.09639 7.70458 10.2716 8.08125 11.3728L2.6025 16.8525C2.49698 16.9579 2.43763 17.1009 2.4375 17.25V21C2.4375 21.1492 2.49676 21.2923 2.60225 21.3977C2.70774 21.5032 2.85082 21.5625 3 21.5625H6.75C6.89918 21.5625 7.04226 21.5032 7.14775 21.3977C7.25324 21.2923 7.3125 21.1492 7.3125 21V19.3125H9C9.14918 19.3125 9.29226 19.2532 9.39775 19.1477C9.50324 19.0423 9.5625 18.8992 9.5625 18.75V17.0625H11.25C11.3991 17.0624 11.5421 17.003 11.6475 16.8975L12.6272 15.9188C13.6316 16.2624 14.6988 16.3832 15.7546 16.2729C16.8104 16.1625 17.8296 15.8236 18.7412 15.2796C19.6528 14.7357 20.4351 13.9998 21.0337 13.123C21.6322 12.2463 22.0327 11.2497 22.2073 10.2026C22.3819 9.15551 22.3264 8.08293 22.0447 7.05942C21.7629 6.0359 21.2618 5.086 20.5759 4.27571C19.8901 3.46542 19.036 2.81417 18.0731 2.36722C17.1102 1.92026 16.0616 1.68832 15 1.6875ZM15 15.1875C14.2156 15.1889 13.4382 15.0403 12.7097 14.7497C12.6061 14.7046 12.4913 14.6917 12.3802 14.7128C12.2692 14.7338 12.1671 14.7879 12.0872 14.8678L11.0166 15.9375H9C8.85082 15.9375 8.70774 15.9968 8.60225 16.1023C8.49676 16.2077 8.4375 16.3508 8.4375 16.5V18.1875H6.75C6.60082 18.1875 6.45774 18.2468 6.35225 18.3523C6.24676 18.4577 6.1875 18.6008 6.1875 18.75V20.4375H3.5625V17.4834L9.13219 11.9128C9.21214 11.8329 9.26616 11.7308 9.28723 11.6198C9.3083 11.5087 9.29544 11.3939 9.25031 11.2903C8.76031 10.0606 8.67763 8.70606 9.01442 7.42583C9.3512 6.1456 10.0897 5.00713 11.1214 4.17768C12.1531 3.34824 13.4237 2.87154 14.7463 2.81763C16.069 2.76372 17.3741 3.13544 18.4699 3.87818C19.5657 4.62091 20.3944 5.69551 20.8343 6.94408C21.2741 8.19266 21.302 9.54939 20.9137 10.8149C20.5254 12.0805 19.7414 13.1882 18.677 13.9752C17.6126 14.7622 16.3238 15.1871 15 15.1875ZM17.8125 7.125C17.8125 7.31042 17.7575 7.49168 17.6545 7.64585C17.5515 7.80002 17.4051 7.92018 17.2338 7.99114C17.0625 8.06209 16.874 8.08066 16.6921 8.04449C16.5102 8.00831 16.3432 7.91902 16.2121 7.78791C16.081 7.6568 15.9917 7.48975 15.9555 7.3079C15.9193 7.12604 15.9379 6.93754 16.0089 6.76623C16.0798 6.59493 16.2 6.44851 16.3542 6.3455C16.5083 6.24248 16.6896 6.1875 16.875 6.1875C17.1236 6.1875 17.3621 6.28627 17.5379 6.46209C17.7137 6.6379 17.8125 6.87636 17.8125 7.125Z" fill="#333333"/>
</svg>
