<svg width="24" height="24" viewBox="0 0 24 24" fill="none" xmlns="http://www.w3.org/2000/svg">
<path d="M10.5 6.75042C10.5 6.94933 10.421 7.14009 10.2803 7.28075C10.1397 7.4214 9.94891 7.50042 9.75 7.50042H3.75C3.55109 7.50042 3.36032 7.4214 3.21967 7.28075C3.07902 7.14009 3 6.94933 3 6.75042C3 6.5515 3.07902 6.36074 3.21967 6.22009C3.36032 6.07943 3.55109 6.00042 3.75 6.00042H9.75C9.94891 6.00042 10.1397 6.07943 10.2803 6.22009C10.421 6.36074 10.5 6.5515 10.5 6.75042ZM9.75 16.5004H7.5V14.2504C7.5 14.0515 7.42098 13.8607 7.28033 13.7201C7.13968 13.5794 6.94891 13.5004 6.75 13.5004C6.55109 13.5004 6.36032 13.5794 6.21967 13.7201C6.07902 13.8607 6 14.0515 6 14.2504V16.5004H3.75C3.55109 16.5004 3.36032 16.5794 3.21967 16.7201C3.07902 16.8607 3 17.0515 3 17.2504C3 17.4493 3.07902 17.6401 3.21967 17.7807C3.36032 17.9214 3.55109 18.0004 3.75 18.0004H6V20.2504C6 20.4493 6.07902 20.6401 6.21967 20.7807C6.36032 20.9214 6.55109 21.0004 6.75 21.0004C6.94891 21.0004 7.13968 20.9214 7.28033 20.7807C7.42098 20.6401 7.5 20.4493 7.5 20.2504V18.0004H9.75C9.94891 18.0004 10.1397 17.9214 10.2803 17.7807C10.421 17.6401 10.5 17.4493 10.5 17.2504C10.5 17.0515 10.421 16.8607 10.2803 16.7201C10.1397 16.5794 9.94891 16.5004 9.75 16.5004ZM14.25 16.5004H20.25C20.4489 16.5004 20.6397 16.4214 20.7803 16.2807C20.921 16.1401 21 15.9493 21 15.7504C21 15.5515 20.921 15.3607 20.7803 15.2201C20.6397 15.0794 20.4489 15.0004 20.25 15.0004H14.25C14.0511 15.0004 13.8603 15.0794 13.7197 15.2201C13.579 15.3607 13.5 15.5515 13.5 15.7504C13.5 15.9493 13.579 16.1401 13.7197 16.2807C13.8603 16.4214 14.0511 16.5004 14.25 16.5004ZM20.25 18.0004H14.25C14.0511 18.0004 13.8603 18.0794 13.7197 18.2201C13.579 18.3607 13.5 18.5515 13.5 18.7504C13.5 18.9493 13.579 19.1401 13.7197 19.2807C13.8603 19.4214 14.0511 19.5004 14.25 19.5004H20.25C20.4489 19.5004 20.6397 19.4214 20.7803 19.2807C20.921 19.1401 21 18.9493 21 18.7504C21 18.5515 20.921 18.3607 20.7803 18.2201C20.6397 18.0794 20.4489 18.0004 20.25 18.0004ZM14.4694 9.53104C14.539 9.60077 14.6217 9.65609 14.7128 9.69384C14.8038 9.73158 14.9014 9.75101 15 9.75101C15.0986 9.75101 15.1962 9.73158 15.2872 9.69384C15.3783 9.65609 15.461 9.60077 15.5306 9.53104L17.25 7.81073L18.9694 9.53104C19.0391 9.60073 19.1218 9.656 19.2128 9.69371C19.3039 9.73142 19.4015 9.75083 19.5 9.75083C19.5985 9.75083 19.6961 9.73142 19.7872 9.69371C19.8782 9.656 19.9609 9.60073 20.0306 9.53104C20.1003 9.46136 20.1556 9.37863 20.1933 9.28759C20.231 9.19654 20.2504 9.09896 20.2504 9.00042C20.2504 8.90187 20.231 8.80429 20.1933 8.71324C20.1556 8.6222 20.1003 8.53947 20.0306 8.46979L18.3103 6.75042L20.0306 5.03104C20.1714 4.89031 20.2504 4.69944 20.2504 4.50042C20.2504 4.30139 20.1714 4.11052 20.0306 3.96979C19.8899 3.82906 19.699 3.75 19.5 3.75C19.301 3.75 19.1101 3.82906 18.9694 3.96979L17.25 5.6901L15.5306 3.96979C15.3899 3.82906 15.199 3.75 15 3.75C14.801 3.75 14.6101 3.82906 14.4694 3.96979C14.3286 4.11052 14.2496 4.30139 14.2496 4.50042C14.2496 4.69944 14.3286 4.89031 14.4694 5.03104L16.1897 6.75042L14.4694 8.46979C14.3996 8.53945 14.3443 8.62216 14.3066 8.71321C14.2688 8.80426 14.2494 8.90186 14.2494 9.00042C14.2494 9.09898 14.2688 9.19657 14.3066 9.28762C14.3443 9.37867 14.3996 9.46139 14.4694 9.53104Z" fill="#333333"/>
</svg>
