<svg width="24" height="24" viewBox="0 0 24 24" fill="none" xmlns="http://www.w3.org/2000/svg">
<path d="M19.281 11.7802C19.2114 11.85 19.1287 11.9053 19.0376 11.943C18.9466 11.9808 18.849 12.0002 18.7504 12.0002C18.6519 12.0002 18.5543 11.9808 18.4632 11.943C18.3722 11.9053 18.2894 11.85 18.2198 11.7802L12.0004 5.55993L5.78104 11.7802C5.64031 11.921 5.44944 12 5.25042 12C5.05139 12 4.86052 11.921 4.71979 11.7802C4.57906 11.6395 4.5 11.4486 4.5 11.2496C4.5 11.0506 4.57906 10.8597 4.71979 10.719L11.4698 3.96899C11.5394 3.89926 11.6222 3.84394 11.7132 3.80619C11.8043 3.76845 11.9019 3.74902 12.0004 3.74902C12.099 3.74902 12.1966 3.76845 12.2876 3.80619C12.3787 3.84394 12.4614 3.89926 12.531 3.96899L19.281 10.719C19.3508 10.7886 19.4061 10.8714 19.4438 10.9624C19.4816 11.0535 19.501 11.1511 19.501 11.2496C19.501 11.3482 19.4816 11.4458 19.4438 11.5368C19.4061 11.6279 19.3508 11.7106 19.281 11.7802Z" fill="#333333"/>
</svg>
