<svg width="36" height="36" viewBox="0 0 36 36" fill="none" xmlns="http://www.w3.org/2000/svg">
<path d="M35.9996 19.1248C35.9996 19.4231 35.8811 19.7093 35.6701 19.9203C35.4592 20.1312 35.173 20.2498 34.8746 20.2498H32.6246V22.4998C32.6246 22.7981 32.5061 23.0843 32.2951 23.2953C32.0842 23.5062 31.798 23.6248 31.4996 23.6248C31.2013 23.6248 30.9151 23.5062 30.7041 23.2953C30.4932 23.0843 30.3746 22.7981 30.3746 22.4998V20.2498H28.1246C27.8263 20.2498 27.5401 20.1312 27.3291 19.9203C27.1182 19.7093 26.9996 19.4231 26.9996 19.1248C26.9996 18.8264 27.1182 18.5402 27.3291 18.3293C27.5401 18.1183 27.8263 17.9998 28.1246 17.9998H30.3746V15.7498C30.3746 15.4514 30.4932 15.1652 30.7041 14.9543C30.9151 14.7433 31.2013 14.6248 31.4996 14.6248C31.798 14.6248 32.0842 14.7433 32.2951 14.9543C32.5061 15.1652 32.6246 15.4514 32.6246 15.7498V17.9998H34.8746C35.173 17.9998 35.4592 18.1183 35.6701 18.3293C35.8811 18.5402 35.9996 18.8264 35.9996 19.1248ZM27.8617 27.4005C28.0537 27.6292 28.1471 27.9247 28.1213 28.2222C28.0954 28.5197 27.9525 28.7947 27.7239 28.9868C27.4952 29.1789 27.1997 29.2723 26.9022 29.2464C26.6047 29.2206 26.3297 29.0776 26.1376 28.849C23.3082 25.4796 19.4185 23.6248 15.1871 23.6248C10.9557 23.6248 7.06604 25.4796 4.23667 28.849C4.04459 29.0774 3.76964 29.2202 3.47229 29.2459C3.17494 29.2716 2.87956 29.1782 2.65112 28.9861C2.42268 28.794 2.2799 28.5191 2.25419 28.2217C2.22847 27.9244 2.32193 27.629 2.51401 27.4005C4.61495 24.9002 7.22776 23.1241 10.1317 22.1735C8.36809 21.0751 7.01024 19.4322 6.26354 17.4933C5.51684 15.5545 5.42192 13.4252 5.99314 11.4276C6.56436 9.42999 7.77064 7.67278 9.42948 6.4218C11.0883 5.17082 13.1095 4.49414 15.1871 4.49414C17.2648 4.49414 19.2859 5.17082 20.9448 6.4218C22.6036 7.67278 23.8099 9.42999 24.3811 11.4276C24.9523 13.4252 24.8574 15.5545 24.1107 17.4933C23.364 19.4322 22.0062 21.0751 20.2426 22.1735C23.1465 23.1241 25.7593 24.9002 27.8617 27.4005ZM15.1871 21.3748C16.6334 21.3748 18.0472 20.9459 19.2497 20.1424C20.4523 19.3389 21.3895 18.1968 21.943 16.8606C22.4965 15.5245 22.6413 14.0542 22.3591 12.6357C22.077 11.2172 21.3805 9.91422 20.3579 8.89155C19.3352 7.86887 18.0322 7.17243 16.6137 6.89027C15.1952 6.60812 13.7249 6.75293 12.3888 7.3064C11.0526 7.85986 9.91052 8.79712 9.10701 9.99966C8.30351 11.2022 7.87463 12.616 7.87463 14.0623C7.87687 16.001 8.64801 17.8596 10.0189 19.2305C11.3898 20.6014 13.2484 21.3725 15.1871 21.3748Z" fill="#333333"/>
</svg>
