<svg width="24" height="24" viewBox="0 0 24 24" fill="none" xmlns="http://www.w3.org/2000/svg">
<path d="M20.813 11.9996C20.813 12.1488 20.7537 12.2919 20.6482 12.3974C20.5427 12.5029 20.3997 12.5621 20.2505 12.5621H5.10892L10.898 18.3521C10.9532 18.4036 10.9976 18.4657 11.0283 18.5347C11.0591 18.6037 11.0756 18.6782 11.0769 18.7537C11.0783 18.8293 11.0644 18.9043 11.0361 18.9743C11.0078 19.0444 10.9657 19.108 10.9123 19.1614C10.8588 19.2148 10.7952 19.2569 10.7252 19.2852C10.6551 19.3135 10.5801 19.3274 10.5046 19.3261C10.4291 19.3248 10.3546 19.3082 10.2856 19.2775C10.2166 19.2467 10.1545 19.2024 10.103 19.1471L3.35298 12.3971C3.24764 12.2917 3.18848 12.1487 3.18848 11.9996C3.18848 11.8506 3.24764 11.7076 3.35298 11.6021L10.103 4.85214C10.2096 4.75278 10.3506 4.69869 10.4964 4.70126C10.6421 4.70383 10.7811 4.76286 10.8842 4.86592C10.9873 4.96898 11.0463 5.10802 11.0489 5.25375C11.0514 5.39947 10.9973 5.54051 10.898 5.64714L5.10892 11.4371H20.2505C20.3997 11.4371 20.5427 11.4964 20.6482 11.6019C20.7537 11.7074 20.813 11.8505 20.813 11.9996Z" fill="white"/>
</svg>
