<svg width="24" height="24" viewBox="0 0 24 24" fill="none" xmlns="http://www.w3.org/2000/svg">
<path d="M21.1767 2.8233C21.0127 2.65681 20.8068 2.53773 20.5807 2.47865C20.3546 2.41957 20.1168 2.42269 19.8923 2.48768H19.882L1.88856 7.94674C1.63214 8.02019 1.40419 8.17003 1.23507 8.37629C1.06594 8.58254 0.963676 8.83544 0.941887 9.10128C0.920099 9.36712 0.979823 9.63328 1.11311 9.86433C1.24639 10.0954 1.4469 10.2803 1.68794 10.3946L9.71387 14.1961C9.7526 14.2151 9.78392 14.2465 9.80294 14.2852L13.6054 22.312C13.7104 22.5368 13.8775 22.7268 14.087 22.8597C14.2964 22.9926 14.5396 23.0628 14.7876 23.062C14.8251 23.062 14.8636 23.062 14.9011 23.0574C15.1668 23.0365 15.4198 22.9346 15.6258 22.7654C15.8318 22.5963 15.981 22.368 16.0532 22.1114L21.5095 4.11799V4.10768C21.5748 3.88346 21.5784 3.64577 21.5198 3.41969C21.4612 3.19362 21.3427 2.98757 21.1767 2.8233ZM20.4267 3.7983L14.9751 21.7899V21.8002C14.9663 21.8378 14.9454 21.8715 14.9156 21.896C14.8858 21.9206 14.8487 21.9347 14.8101 21.9361C14.7714 21.9419 14.7319 21.9346 14.6979 21.9152C14.6638 21.8958 14.6373 21.8655 14.6226 21.8292L10.8726 13.9205L15.3951 9.39799C15.5007 9.29244 15.56 9.14929 15.56 9.00002C15.56 8.85075 15.5007 8.7076 15.3951 8.60205C15.2896 8.4965 15.1464 8.43721 14.9972 8.43721C14.8479 8.43721 14.7047 8.4965 14.5992 8.60205L10.0804 13.1246L2.17075 9.37455C2.136 9.35836 2.10704 9.3319 2.08779 9.29874C2.06854 9.26558 2.05992 9.22732 2.06309 9.18911C2.06626 9.1509 2.08106 9.11458 2.10551 9.08504C2.12995 9.05551 2.16287 9.03418 2.19981 9.02393H2.21012L20.2017 3.56955C20.2333 3.56067 20.2667 3.56052 20.2984 3.5691C20.3301 3.57768 20.3589 3.59469 20.3817 3.6183C20.4048 3.64144 20.4215 3.67023 20.43 3.70181C20.4386 3.73339 20.4387 3.76665 20.4304 3.7983H20.4267Z" fill="white"/>
</svg>
