<svg width="24" height="24" viewBox="0 0 24 24" fill="none" xmlns="http://www.w3.org/2000/svg">
<path d="M15.398 19.1021C15.4532 19.1536 15.4976 19.2157 15.5283 19.2847C15.5591 19.3537 15.5756 19.4282 15.5769 19.5037C15.5783 19.5793 15.5644 19.6543 15.5361 19.7243C15.5078 19.7944 15.4657 19.858 15.4123 19.9114C15.3588 19.9648 15.2952 20.0069 15.2252 20.0352C15.1551 20.0635 15.0801 20.0774 15.0046 20.0761C14.9291 20.0748 14.8546 20.0582 14.7856 20.0275C14.7166 19.9967 14.6545 19.9524 14.603 19.8971L7.10298 12.3971C6.99764 12.2917 6.93848 12.1487 6.93848 11.9996C6.93848 11.8506 6.99764 11.7076 7.10298 11.6021L14.603 4.10214C14.7096 4.00278 14.8506 3.94869 14.9964 3.95126C15.1421 3.95383 15.2811 4.01286 15.3842 4.11592C15.4873 4.21898 15.5463 4.35802 15.5489 4.50375C15.5514 4.64947 15.4973 4.79051 15.398 4.89714L8.29642 11.9996L15.398 19.1021Z" fill="white"/>
</svg>
