<svg width="24" height="24" viewBox="0 0 24 24" fill="none" xmlns="http://www.w3.org/2000/svg">
<path d="M21.3971 7.14714L9.39714 19.1471C9.29167 19.2525 9.1487 19.3116 8.99964 19.3116C8.85058 19.3116 8.70761 19.2525 8.60214 19.1471L3.35214 13.8971C3.25278 13.7905 3.19869 13.6495 3.20126 13.5037C3.20383 13.358 3.26286 13.219 3.36592 13.1159C3.46898 13.0129 3.60802 12.9538 3.75375 12.9513C3.89947 12.9487 4.04051 13.0028 4.14714 13.1021L8.99964 17.9537L20.6021 6.35214C20.7088 6.25278 20.8498 6.19869 20.9955 6.20126C21.1413 6.20383 21.2803 6.26287 21.3834 6.36592C21.4864 6.46898 21.5455 6.60802 21.548 6.75375C21.5506 6.89948 21.4965 7.04051 21.3971 7.14714Z" fill="#333333"/>
</svg>
