<svg width="18" height="19" viewBox="0 0 18 19" fill="none" xmlns="http://www.w3.org/2000/svg">
<g opacity="0.6">
<path d="M9.70313 13.1562C9.70313 13.2953 9.66189 13.4313 9.58463 13.5469C9.50737 13.6625 9.39756 13.7526 9.26908 13.8059C9.1406 13.8591 8.99922 13.873 8.86283 13.8459C8.72644 13.8187 8.60115 13.7518 8.50282 13.6534C8.40448 13.5551 8.33752 13.4298 8.31039 13.2934C8.28326 13.157 8.29718 13.0157 8.3504 12.8872C8.40362 12.7587 8.49374 12.6489 8.60937 12.5716C8.725 12.4944 8.86094 12.4531 9 12.4531C9.18648 12.4531 9.36533 12.5272 9.49719 12.6591C9.62905 12.7909 9.70313 12.9698 9.70313 13.1562ZM9 5.70312C7.52344 5.70312 6.32813 6.77539 6.32813 8.09375V8.375C6.32813 8.48689 6.37258 8.59419 6.45169 8.67331C6.53081 8.75243 6.63811 8.79688 6.75 8.79688C6.86189 8.79688 6.9692 8.75243 7.04831 8.67331C7.12743 8.59419 7.17188 8.48689 7.17188 8.375V8.09375C7.17188 7.24086 7.99172 6.54688 9 6.54688C10.0083 6.54688 10.8281 7.24086 10.8281 8.09375C10.8281 8.94664 10.0083 9.64062 9 9.64062C8.88811 9.64062 8.78081 9.68507 8.70169 9.76419C8.62258 9.84331 8.57813 9.95061 8.57813 10.0625V10.625C8.57813 10.7369 8.62258 10.8442 8.70169 10.9233C8.78081 11.0024 8.88811 11.0469 9 11.0469C9.11189 11.0469 9.2192 11.0024 9.29831 10.9233C9.37743 10.8442 9.42188 10.7369 9.42188 10.625V10.4548C10.6952 10.2734 11.6719 9.28344 11.6719 8.09375C11.6719 6.77539 10.4766 5.70312 9 5.70312ZM16.1719 9.5C16.1719 10.9185 15.7513 12.3051 14.9632 13.4845C14.1751 14.6639 13.055 15.5831 11.7446 16.1259C10.4341 16.6688 8.99205 16.8108 7.60084 16.5341C6.20963 16.2573 4.93173 15.5743 3.92872 14.5713C2.92572 13.5683 2.24266 12.2904 1.96593 10.8992C1.68921 9.50796 1.83123 8.06593 2.37405 6.75544C2.91688 5.44495 3.83611 4.32486 5.01552 3.5368C6.19493 2.74875 7.58154 2.32813 9 2.32812C10.9014 2.33036 12.7243 3.08668 14.0688 4.43119C15.4133 5.77569 16.1696 7.59859 16.1719 9.5ZM15.3281 9.5C15.3281 8.24841 14.957 7.02494 14.2616 5.98428C13.5663 4.94363 12.578 4.13254 11.4217 3.65357C10.2654 3.17461 8.99298 3.0493 7.76545 3.29347C6.53791 3.53764 5.41035 4.14034 4.52534 5.02534C3.64034 5.91034 3.03764 7.03791 2.79347 8.26544C2.5493 9.49298 2.67462 10.7654 3.15358 11.9217C3.63254 13.078 4.44363 14.0663 5.48429 14.7616C6.52494 15.457 7.74842 15.8281 9 15.8281C10.6778 15.8263 12.2863 15.159 13.4726 13.9726C14.659 12.7863 15.3263 11.1778 15.3281 9.5Z" fill="#53657B"/>
</g>
</svg>
