<svg width="24" height="24" viewBox="0 0 24 24" fill="none" xmlns="http://www.w3.org/2000/svg">
<path d="M20.0625 10.5005V19.5005C20.0625 19.8486 19.9242 20.1824 19.6781 20.4286C19.4319 20.6747 19.0981 20.813 18.75 20.813H5.25C4.9019 20.813 4.56806 20.6747 4.32192 20.4286C4.07578 20.1824 3.9375 19.8486 3.9375 19.5005V10.5005C3.9375 10.1524 4.07578 9.81854 4.32192 9.5724C4.56806 9.32626 4.9019 9.18798 5.25 9.18798H7.5C7.64918 9.18798 7.79226 9.24724 7.89775 9.35273C8.00324 9.45822 8.0625 9.6013 8.0625 9.75048C8.0625 9.89966 8.00324 10.0427 7.89775 10.1482C7.79226 10.2537 7.64918 10.313 7.5 10.313H5.25C5.20027 10.313 5.15258 10.3327 5.11742 10.3679C5.08225 10.4031 5.0625 10.4508 5.0625 10.5005V19.5005C5.0625 19.5502 5.08225 19.5979 5.11742 19.6331C5.15258 19.6682 5.20027 19.688 5.25 19.688H18.75C18.7997 19.688 18.8474 19.6682 18.8826 19.6331C18.9177 19.5979 18.9375 19.5502 18.9375 19.5005V10.5005C18.9375 10.4508 18.9177 10.4031 18.8826 10.3679C18.8474 10.3327 18.7997 10.313 18.75 10.313H16.5C16.3508 10.313 16.2077 10.2537 16.1023 10.1482C15.9968 10.0427 15.9375 9.89966 15.9375 9.75048C15.9375 9.6013 15.9968 9.45822 16.1023 9.35273C16.2077 9.24724 16.3508 9.18798 16.5 9.18798H18.75C19.0981 9.18798 19.4319 9.32626 19.6781 9.5724C19.9242 9.81854 20.0625 10.1524 20.0625 10.5005ZM8.6475 6.39798L11.4375 3.60892V12.7505C11.4375 12.8997 11.4968 13.0427 11.6023 13.1482C11.7077 13.2537 11.8508 13.313 12 13.313C12.1492 13.313 12.2923 13.2537 12.3977 13.1482C12.5032 13.0427 12.5625 12.8997 12.5625 12.7505V3.60892L15.3525 6.39798C15.404 6.45325 15.4661 6.49757 15.5351 6.52832C15.6041 6.55906 15.6786 6.57559 15.7541 6.57693C15.8296 6.57826 15.9047 6.56436 15.9747 6.53607C16.0447 6.50778 16.1084 6.46567 16.1618 6.41226C16.2152 6.35885 16.2573 6.29522 16.2856 6.22518C16.3139 6.15514 16.3278 6.08012 16.3264 6.00459C16.3251 5.92906 16.3086 5.85458 16.2778 5.78558C16.2471 5.71658 16.2028 5.65448 16.1475 5.60298L12.3975 1.85298C12.292 1.74764 12.1491 1.68848 12 1.68848C11.8509 1.68848 11.708 1.74764 11.6025 1.85298L7.8525 5.60298C7.79724 5.65448 7.75291 5.71658 7.72216 5.78558C7.69142 5.85458 7.67489 5.92906 7.67356 6.00459C7.67222 6.08012 7.68612 6.15514 7.71441 6.22518C7.7427 6.29522 7.78481 6.35885 7.83822 6.41226C7.89164 6.46567 7.95526 6.50778 8.0253 6.53607C8.09534 6.56436 8.17036 6.57826 8.24589 6.57693C8.32142 6.57559 8.3959 6.55906 8.4649 6.52832C8.5339 6.49757 8.596 6.45325 8.6475 6.39798Z" fill="#333333"/>
</svg>
