<svg width="24" height="24" viewBox="0 0 24 24" fill="none" xmlns="http://www.w3.org/2000/svg">
<path d="M13.1029 16.1025C12.9975 16.208 12.9384 16.3509 12.9384 16.5C12.9384 16.6491 12.9975 16.792 13.1029 16.8975L16.1029 19.8975C16.2083 20.0028 16.3513 20.062 16.5004 20.062C16.6494 20.062 16.7924 20.0028 16.8979 19.8975L19.8979 16.8975C19.9972 16.7909 20.0513 16.6498 20.0487 16.5041C20.0462 16.3584 19.9871 16.2193 19.8841 16.1163C19.781 16.0132 19.642 15.9542 19.4963 15.9516C19.3505 15.949 19.2095 16.0031 19.1029 16.1025L17.0629 18.1416V4.5C17.0629 4.35082 17.0036 4.20774 16.8981 4.10225C16.7926 3.99676 16.6495 3.9375 16.5004 3.9375C16.3512 3.9375 16.2081 3.99676 16.1026 4.10225C15.9971 4.20774 15.9379 4.35082 15.9379 4.5V18.1416L13.8979 16.1025C13.7924 15.9972 13.6494 15.938 13.5004 15.938C13.3513 15.938 13.2083 15.9972 13.1029 16.1025ZM4.10286 7.1025L7.10286 4.1025C7.20833 3.99716 7.3513 3.93799 7.50036 3.93799C7.64942 3.93799 7.79239 3.99716 7.89786 4.1025L10.8979 7.1025C10.9972 7.20913 11.0513 7.35017 11.0487 7.49589C11.0462 7.64162 10.9871 7.78066 10.8841 7.88372C10.781 7.98678 10.642 8.04581 10.4963 8.04838C10.3505 8.05095 10.2095 7.99686 10.1029 7.8975L8.06286 5.85844V19.5C8.06286 19.6492 8.0036 19.7923 7.89811 19.8977C7.79262 20.0032 7.64954 20.0625 7.50036 20.0625C7.35117 20.0625 7.2081 20.0032 7.10261 19.8977C6.99712 19.7923 6.93786 19.6492 6.93786 19.5V5.85844L4.89786 7.8975C4.79123 7.99686 4.65019 8.05095 4.50447 8.04838C4.35874 8.04581 4.2197 7.98678 4.11664 7.88372C4.01358 7.78066 3.95455 7.64162 3.95198 7.49589C3.94941 7.35017 4.0035 7.20913 4.10286 7.1025Z" fill="#333333"/>
</svg>
