<svg width="24" height="24" viewBox="0 0 24 24" fill="none" xmlns="http://www.w3.org/2000/svg">
<path d="M19.1471 11.648C19.0417 11.7533 18.8987 11.8125 18.7496 11.8125C18.6006 11.8125 18.4576 11.7533 18.3521 11.648L11.9996 5.29642L5.64714 11.648C5.54051 11.7473 5.39947 11.8014 5.25375 11.7989C5.10802 11.7963 4.96898 11.7373 4.86592 11.6342C4.76286 11.5311 4.70383 11.3921 4.70126 11.2464C4.69869 11.1006 4.75278 10.9596 4.85214 10.853L11.6021 4.10298C11.7076 3.99764 11.8506 3.93848 11.9996 3.93848C12.1487 3.93848 12.2917 3.99764 12.3971 4.10298L19.1471 10.853C19.2525 10.9585 19.3116 11.1014 19.3116 11.2505C19.3116 11.3995 19.2525 11.5425 19.1471 11.648Z" fill="#333333"/>
</svg>
